Youtube

<svg height="512px" style="enable-background:new 0 0 512 512;" version="1.1" viewBox="0 0 512 512" width="512px" xml:space="preserve" xmlns="http://www.w3.org/2000/svg" xmlns:xlink="http://www.w3.org/1999/xlink"><g id="_x33_95-youtube"><g><path d="M476.387,144.888c-5.291-19.919-20.878-35.608-40.67-40.933C399.845,94.282,256,94.282,256,94.282    s-143.845,0-179.719,9.674c-19.791,5.325-35.378,21.013-40.668,40.933c-9.612,36.105-9.612,111.438-9.612,111.438    s0,75.334,9.612,111.438c5.29,19.92,20.877,34.955,40.668,40.281C112.155,417.719,256,417.719,256,417.719    s143.845,0,179.717-9.674c19.792-5.326,35.379-20.361,40.67-40.281c9.612-36.104,9.612-111.438,9.612-111.438    S485.999,180.994,476.387,144.888z" style="fill:#FF0000;"/><polygon points="208.954,324.723 208.954,187.93 329.18,256.328   " style="fill:#FFFFFF;"/></g></g><g id="Layer_1"/></svg>

Facebook

<svg data-name="1-facebook" id="_1-facebook" viewBox="0 0 64 64" xmlns="http://www.w3.org/2000/svg"><defs><style>.cls-1{fill:#385997;}.cls-2{fill:#fff;}</style></defs><title/><rect class="cls-1" height="64" rx="11.2" ry="11.2" width="64"/><path class="cls-2" d="M54.4,29.6h-10V22c0-1.86,2.14-2,2.8-2H54V9.6H47.2C39.67,9.6,34,14.93,34,22v7.6H25.6V40H34V64H44.4V40h8.4Z"/></svg>

Instagram

<svg id="Insta" viewBox="0 0 512 512" xmlns="http://www.w3.org/2000/svg" xmlns:xlink="http://www.w3.org/1999/xlink"><defs><style>.cls-1{fill:url(#Nepojmenovaný_přechod_27);}.cls-2{fill:#fff;}</style><linearGradient gradientUnits="userSpaceOnUse" id="Nepojmenovaný_přechod_27" x1="328.27" x2="183.73" y1="508.05" y2="3.95"><stop offset="0" stop-color="#ffdb73"/><stop offset="0.08" stop-color="#fdad4e"/><stop offset="0.15" stop-color="#fb832e"/><stop offset="0.19" stop-color="#fa7321"/><stop offset="0.23" stop-color="#f6692f"/><stop offset="0.37" stop-color="#e84a5a"/><stop offset="0.48" stop-color="#e03675"/><stop offset="0.55" stop-color="#dd2f7f"/><stop offset="0.68" stop-color="#b43d97"/><stop offset="0.97" stop-color="#4d60d4"/><stop offset="1" stop-color="#4264db"/></linearGradient></defs><title/><rect class="cls-1" height="465.06" rx="107.23" ry="107.23" width="465.06" x="23.47" y="23.47"/><path class="cls-2" d="M331,115.22a66.92,66.92,0,0,1,66.65,66.65V330.13A66.92,66.92,0,0,1,331,396.78H181a66.92,66.92,0,0,1-66.65-66.65V181.87A66.92,66.92,0,0,1,181,115.22H331m0-31H181c-53.71,0-97.66,44-97.66,97.66V330.13c0,53.71,44,97.66,97.66,97.66H331c53.71,0,97.66-44,97.66-97.66V181.87c0-53.71-43.95-97.66-97.66-97.66Z"/><path class="cls-2" d="M256,198.13A57.87,57.87,0,1,1,198.13,256,57.94,57.94,0,0,1,256,198.13m0-31A88.87,88.87,0,1,0,344.87,256,88.87,88.87,0,0,0,256,167.13Z"/><circle class="cls-2" cx="346.81" cy="163.23" r="21.07"/></svg>

Spotify

<svg id="spotify" enable-background="new 0 0 128 128" version="1.1" viewBox="0 0 128 128" xml:space="preserve" xmlns="http://www.w3.org/2000/svg" xmlns:xlink="http://www.w3.org/1999/xlink"><g id="_x34__stroke"><g id="Spotify_1_"><rect clip-rule="evenodd" fill="none" fill-rule="evenodd" height="128" width="128"/><path clip-rule="evenodd" d="M64,0C28.8,0,0,28.8,0,64s28.8,64,64,64    s64-28.8,64-64S99.52,0,64,0 M93.44,92.48c-1.28,1.92-3.52,2.56-5.44,1.28c-15.04-9.28-33.92-11.2-56.32-6.08    c-2.24,0.64-4.16-0.96-4.8-2.88c-0.64-2.24,0.96-4.16,2.88-4.8c24.32-5.44,45.44-3.2,62.08,7.04C94.08,88,94.4,90.56,93.44,92.48     M101.12,74.88c-1.6,2.24-4.48,3.2-6.72,1.6c-17.28-10.56-43.52-13.76-63.68-7.36c-2.56,0.64-5.44-0.64-6.08-3.2    c-0.64-2.56,0.64-5.44,3.2-6.08c23.36-7.04,52.16-3.52,72,8.64C101.76,69.44,102.72,72.64,101.12,74.88 M101.76,56.96    C81.28,44.8,47.04,43.52,27.52,49.6c-3.2,0.96-6.4-0.96-7.36-3.84c-0.96-3.2,0.96-6.4,3.84-7.36c22.72-6.72,60.16-5.44,83.84,8.64    c2.88,1.6,3.84,5.44,2.24,8.32C108.48,57.6,104.64,58.56,101.76,56.96" fill="#10BC4C" fill-rule="evenodd" id="Spotify"/></g></g></svg>

Twitter

<svg xmlns="http://www.w3.org/2000/svg" width="1200" height="1227" viewBox="0 0 1200 1227" fill="none"><g clip-path="url(#clip0_1_2)"><path d="M714.163 519.284L1160.89 0H1055.03L667.137 450.887L357.328 0H0L468.492 681.821L0 1226.37H105.866L515.491 750.218L842.672 1226.37H1200L714.137 519.284H714.163ZM569.165 687.828L521.697 619.934L144.011 79.6944H306.615L611.412 515.685L658.88 583.579L1055.08 1150.3H892.476L569.165 687.854V687.828Z" fill="black"/></g><defs><clipPath id="clip0_1_2"><rect width="1200" height="1227" fill="white"/></clipPath></defs></svg>

TikTok

<svg id="tiktok" viewBox="0 0 512 512" xmlns="http://www.w3.org/2000/svg"><defs><style>.cls-1{fill:#00f6ef;}.cls-2{fill:#ff004f;}</style></defs><path class="cls-1" d="M415.27,214.69V146.55c-89.08-3.75-91.89-84.69-92-92.3v-.57H254.49V319.06h0a54.5,54.5,0,1,1-38.64-52.18V196.59A123.49,123.49,0,1,0,323.43,319.06c0-1.73-.05-3.45-.12-5.16V183.22C355,212.22,415.27,214.69,415.27,214.69Z"/><path d="M435.54,231.47V163.33c-89.08-3.76-91.89-84.7-92-92.3v-.58H274.76V335.84h0a54.54,54.54,0,1,1-38.64-52.18V213.37A123.49,123.49,0,1,0,343.7,335.84c0-1.73-.05-3.45-.12-5.16V200C375.28,229,435.54,231.47,435.54,231.47Z"/><path class="cls-2" d="M325,70.45c3.32,18.07,13,46.34,41.28,62.87-21.6-25.15-22.7-57.61-22.74-62.29v-.58Z"/><path class="cls-2" d="M435.54,231.47V163.33a127.94,127.94,0,0,1-20.27-2.42v53.66s-60.26-2.47-92-31.46V313.78c.07,1.72.12,3.43.12,5.16a123.49,123.49,0,0,1-191.9,102.81A123.48,123.48,0,0,0,343.7,335.84c0-1.73-.05-3.45-.12-5.16V200C375.28,229,435.54,231.47,435.54,231.47Z"/><path class="cls-2" d="M215.85,266.76a54.56,54.56,0,0,0-39.63,101.31,54.54,54.54,0,0,1,59.9-84.41V213.37a124.69,124.69,0,0,0-15.91-1c-1.46,0-2.91,0-4.36.09Z"/></svg>